<svg id="Layer_4" data-name="Layer 4" xmlns="http://www.w3.org/2000/svg" viewBox="0 0 232.93 96.14"><defs><style>.cls-1{opacity:0.3;}.cls-2{fill:#a0946e;}.cls-3{fill:#3d303a;}.cls-4{fill:#a2ab9a;}.cls-5{fill:#5b7862;}.cls-6{fill:#ecacad;}.cls-7{fill:#d55b73;}.cls-8{fill:#c8d3d6;}.cls-9{fill:#94b9b1;}.cls-10{fill:#d2a957;}.cls-11{fill:#17144a;}</style></defs><title>katie-crafts-logo</title><g class="cls-1"><path class="cls-2" d="M149.48,84.3A28.65,28.65,0,0,1,141,83,34.26,34.26,0,0,1,123,69.15a.47.47,0,0,1,.05-.57.31.31,0,0,1,.48.06,33.57,33.57,0,0,0,17.58,13.58,28.13,28.13,0,0,0,10.92,1.15.38.38,0,0,1,.37.38.39.39,0,0,1-.32.44Q150.79,84.3,149.48,84.3Z"/><path class="cls-2" d="M132.48,74.74a14,14,0,0,1-4.27-.67,11.93,11.93,0,0,1-1.93-.77.44.44,0,0,1-.18-.53.33.33,0,0,1,.45-.22,11.33,11.33,0,0,0,1.83.73,13.45,13.45,0,0,0,6.24.46,9,9,0,0,0,3.24-3.06l.31-.5A9.65,9.65,0,0,1,139,69a2.46,2.46,0,0,1,1.78-1h0a1.69,1.69,0,0,1,1.61,1.52A2.57,2.57,0,0,1,141,71.9a14.67,14.67,0,0,1-6.26,2.65h0A13.78,13.78,0,0,1,132.48,74.74Zm8.27-5.92h0a1.91,1.91,0,0,0-1.29.76,8.92,8.92,0,0,0-.73,1.09l-.32.51a10,10,0,0,1-1.76,2.07,14.24,14.24,0,0,0,4-2.06c.5-.36,1.08-.93,1-1.57A1,1,0,0,0,140.76,68.82Z"/><path class="cls-2" d="M129.76,74.25a7.06,7.06,0,0,1-1.53-.17.41.41,0,0,1-.27-.48.35.35,0,0,1,.4-.33,7.09,7.09,0,0,0,6.24-1.76,9,9,0,0,0,.63-5.05c-.05-.3-.12-.61-.19-.91a8,8,0,0,1-.29-2.56,2.94,2.94,0,0,1,1.05-2,1.31,1.31,0,0,1,1.32-.21c1,.43,1.22,1.85,1.26,2.65a11.46,11.46,0,0,1-2.89,8.29c-.14.15-.28.29-.43.42A7.93,7.93,0,0,1,129.76,74.25Zm6.89-12.77a.83.83,0,0,0-.48.18,2.1,2.1,0,0,0-.73,1.42,7.16,7.16,0,0,0,.27,2.25c.07.32.14.64.2,1a9.94,9.94,0,0,1-.13,3.91,10.8,10.8,0,0,0,1.93-6.75c0-.49-.15-1.65-.8-1.93A.61.61,0,0,0,136.66,61.48Z"/><path class="cls-2" d="M135.3,78.6a17.23,17.23,0,0,1-3.59-.37.41.41,0,0,1-.28-.47.35.35,0,0,1,.4-.33,18,18,0,0,0,13.46-2.64,19.27,19.27,0,0,0,3.2-7.64c.15-.74.37-1.85,1.17-2.15a1.3,1.3,0,0,1,1.55.68,3.19,3.19,0,0,1,.4,1.76c0,1.89-1,3.71-2.86,5.56a20,20,0,0,1-3.07,2.47h0A19,19,0,0,1,135.3,78.6ZM150,65.74a.41.41,0,0,0-.16,0c-.41.15-.57.79-.72,1.55a20.44,20.44,0,0,1-2.28,6.3q.72-.59,1.42-1.27c1.72-1.7,2.58-3.32,2.61-4.95a2.34,2.34,0,0,0-.26-1.26A.8.8,0,0,0,150,65.74Z"/><path class="cls-2" d="M153,79.95c-.73,0-1.42-.76-1.79-1.17a8.28,8.28,0,0,0-3.33-2.24,17.24,17.24,0,0,0-3.37.27,20.2,20.2,0,0,0-3.37.86.33.33,0,0,1-.43-.27.42.42,0,0,1,.23-.51,20.94,20.94,0,0,1,7-1.16h0a20.59,20.59,0,0,1,3.83.37,3.1,3.1,0,0,1,2,1,2.21,2.21,0,0,1,.42,1.61,1.45,1.45,0,0,1-.6,1.06A1,1,0,0,1,153,79.95Zm-3.13-3.31a9.49,9.49,0,0,1,1.82,1.54c.56.62,1.14,1.16,1.57.88a.65.65,0,0,0,.25-.47,1.3,1.3,0,0,0-.24-.93,2.56,2.56,0,0,0-1.6-.76Q150.78,76.73,149.88,76.64Z"/><path class="cls-2" d="M138,94.71a1.15,1.15,0,0,1-.72-.25,2.17,2.17,0,0,1-.63-2.09,6.12,6.12,0,0,1,.53-1.5l.14-.3a13,13,0,0,0,1-6.33A11,11,0,0,0,136.11,81a.46.46,0,0,1-.05-.57.31.31,0,0,1,.48-.06A11.71,11.71,0,0,1,139,83.92h0a3.12,3.12,0,0,1,.14.3l0,.11a14.11,14.11,0,0,1,.8,7.78,4.4,4.4,0,0,1-.77,2A1.68,1.68,0,0,1,138,94.71Zm1.07-8.54A13.7,13.7,0,0,1,138,91l-.14.31a5.37,5.37,0,0,0-.46,1.27,1.33,1.33,0,0,0,.32,1.23.83.83,0,0,0,1.09-.26,3.55,3.55,0,0,0,.59-1.56A13.24,13.24,0,0,0,139.1,86.16Z"/><path class="cls-2" d="M149,95.73a1.16,1.16,0,0,1-.51-.12,2.06,2.06,0,0,1-1-1.34,5.91,5.91,0,0,1,0-2.15c0-.17,0-.33.05-.49a9.78,9.78,0,0,0-.61-4.39,11.49,11.49,0,0,0-5.52-4.1A2.67,2.67,0,0,0,141,83l-.1,0-.39-.09a.41.41,0,0,1-.28-.47.36.36,0,0,1,.4-.34l.36.09a.48.48,0,0,1,.18.05,2.88,2.88,0,0,1,.44.14,12,12,0,0,1,5.86,4.38h0a15.17,15.17,0,0,1,2.72,6.18c.25,1.25,0,2.21-.58,2.63A1,1,0,0,1,149,95.73Zm-.89-6.57a10.5,10.5,0,0,1,.07,2.56c0,.17,0,.34-.05.51a5.14,5.14,0,0,0,0,1.81,1.26,1.26,0,0,0,.62.81.47.47,0,0,0,.49,0c.49-.33.32-1.41.25-1.73A14.6,14.6,0,0,0,148.14,89.16Z"/><path class="cls-2" d="M162.21,96.14a2,2,0,0,1-1.53-.91,6.12,6.12,0,0,1-.8-1.94l-.12-.41a14.53,14.53,0,0,0-2.81-5.27,20.94,20.94,0,0,0-8-3.32l-.22,0a.4.4,0,0,1-.31-.45c0-.22.18-.4.38-.36l.29.05a21.52,21.52,0,0,1,8.23,3.43h0a24.9,24.9,0,0,1,5.13,4.59,4.91,4.91,0,0,1,1.15,2A2.34,2.34,0,0,1,163,95.9,1.28,1.28,0,0,1,162.21,96.14ZM158.84,89a16.09,16.09,0,0,1,1.56,3.59l.12.42a5.42,5.42,0,0,0,.68,1.67c.34.48,1,.8,1.4.49a1.48,1.48,0,0,0,.34-1.48,4.19,4.19,0,0,0-1-1.61A24.86,24.86,0,0,0,158.84,89Z"/><path class="cls-2" d="M152.09,84.19a.37.37,0,0,1-.34-.36.4.4,0,0,1,.3-.46l.13,0c.34-.05.69-.1,1-.18l.09,0a18.6,18.6,0,0,0,5.88-2.32l.06,0a21.23,21.23,0,0,0,4.78-4l.1-.12a4.86,4.86,0,0,1,1.36-1.2,1.58,1.58,0,0,1,2,.35,1.89,1.89,0,0,1,.39,1.25,2.64,2.64,0,0,1-.62,1.66,4.23,4.23,0,0,1-2.15,1.16l-1.33.39-4.25,1.24h0A19.22,19.22,0,0,1,153.4,84l-.11,0c-.32.07-.68.13-1,.18l-.13,0Zm14.21-8.07a1.29,1.29,0,0,0-.56.14,4.29,4.29,0,0,0-1.16,1l-.11.12a22.36,22.36,0,0,1-2.87,2.68l2-.58,1.33-.39a3.66,3.66,0,0,0,1.83-1,1.76,1.76,0,0,0,.41-1.09,1,1,0,0,0-.2-.67A.81.81,0,0,0,166.3,76.11Z"/><path class="cls-2" d="M102,50.82a.45.45,0,0,1-.17,0c-.3-.12-30.14-12.08-50.09-5.51a.51.51,0,0,1-.63-.42.63.63,0,0,1,.36-.75c20.26-6.67,50.39,5.41,50.7,5.53a.64.64,0,0,1,.32.78A.53.53,0,0,1,102,50.82Z"/><path class="cls-2" d="M92.95,47C86,30.5,76.35,21.62,63.5,23.66c13.22-.14,6.7,5.87,13.58,8.73S89.39,39.6,92.95,47Z"/><path class="cls-2" d="M95.72,47.85S84.9,66.68,69.1,68.22c7.49-2.06,5.14-5.4,10.53-9.43S90.18,54.33,95.72,47.85Z"/><path class="cls-2" d="M79.81,43.76s-13.62,22.4-34.26,21.4c9.39-.17,9.7-9.19,17.08-12S76.45,49.09,79.81,43.76Z"/><path class="cls-2" d="M74.67,43S56.59,22.61,33,29.58c8.59.24,9.74,3.76,15.54,4.77S66.15,34.76,74.67,43Z"/><path class="cls-2" d="M57.11,43.55S36.19,41.77,26.81,64.4C31.41,55,38,58.85,43.12,54.72S49.07,44.49,57.11,43.55Z"/><path class="cls-2" d="M117.58,46.44a.74.74,0,0,1-.68-.6.88.88,0,0,1,.47-1.06c.46-.17,46.84-16.78,82-.61a.9.9,0,0,1,.41,1.09.68.68,0,0,1-.92.48c-34.74-16-80.64.48-81.1.65A.59.59,0,0,1,117.58,46.44Z"/><path class="cls-2" d="M128,42.52s33-52.71,97.19,19.56c-34.71-22.11-50.33-6-68.26-9.14S139.25,42.26,128,42.52Z"/><path class="cls-3" d="M134.3,40.2l2.77-.61c1.77-.36,4.32-.84,7.38-1.33,1.53-.22,3.19-.46,5-.64s3.62-.37,5.55-.49,3.92-.2,6-.28,4.09,0,6.15.1,4.12.26,6.15.42,4,.43,5.93.79l2.82.5c.92.19,1.81.43,2.68.63,1.74.39,3.36.92,4.85,1.41s2.83,1.06,4,1.52a24.88,24.88,0,0,1,3,1.39c1.66.83,2.59,1.34,2.59,1.34s-1-.3-2.72-.88L195,43.6l-1.7-.48c-1.21-.34-2.56-.79-4.07-1.09s-3.11-.77-4.85-1.07c-.86-.17-1.75-.36-2.65-.51L178.94,40c-1.89-.33-3.86-.47-5.85-.69s-4-.3-6.07-.32-4.07,0-6.07,0-4,.09-5.88.24-3.75.27-5.49.45-3.39.41-4.91.57c-3,.4-5.56.81-7.33,1.12l-2.79.49a.74.74,0,0,1-.81-.71A.84.84,0,0,1,134.3,40.2Z"/><path class="cls-2" d="M133.11,27.45s.43-.24,1.14-.7a34.89,34.89,0,0,0,2.89-2.06,41.49,41.49,0,0,0,3.76-3.43,28.12,28.12,0,0,0,3.69-4.59A8.42,8.42,0,0,0,145.65,14l0-.17v0c0,.05,0,0,0,0v-.1a3.12,3.12,0,0,0,0-.37c0-.19,0-.43,0-.65a5.51,5.51,0,0,0-.2-1.28,3.53,3.53,0,0,0-1.07-1.88,2.13,2.13,0,0,0-1.63-.5,2.34,2.34,0,0,0-1.42.7,3.64,3.64,0,0,0-.78,1.23,4.25,4.25,0,0,0-.24,1,3,3,0,0,0,0,.39.09.09,0,0,1-.08.1.08.08,0,0,1-.08-.06h0a3.17,3.17,0,0,1-.1-.41,4.16,4.16,0,0,1,0-1.21,4.23,4.23,0,0,1,.63-1.82,3.42,3.42,0,0,1,1.88-1.46,3.24,3.24,0,0,1,1.33-.11,3.11,3.11,0,0,1,.72.19,3.39,3.39,0,0,1,.67.36,5,5,0,0,1,1.85,2.87,7.71,7.71,0,0,1,.21,1.85,6.42,6.42,0,0,1-.07,1c0,.18-.05.3-.08.44l0,.1,0,.09v.06l-.06.22a10.43,10.43,0,0,1-1.49,3.16,28.21,28.21,0,0,1-4.14,4.53,32.13,32.13,0,0,1-4.06,3.14A33.92,33.92,0,0,1,134.37,27c-.76.39-1.19.58-1.19.58a.08.08,0,0,1-.11-.05A.11.11,0,0,1,133.11,27.45Z"/><path class="cls-2" d="M141.44,21.43a34.86,34.86,0,0,1,3.11-2.63A31,31,0,0,1,148,16.52a12.24,12.24,0,0,1,4.4-1.79,4.67,4.67,0,0,1,2.56.4,4.06,4.06,0,0,1,2,2.16,5.15,5.15,0,0,1,.25,3,4.48,4.48,0,0,1-.51,1.32,3.22,3.22,0,0,1-.85.92A2.67,2.67,0,0,1,154,23a2.43,2.43,0,0,1-1.3-.54,2.3,2.3,0,0,1-.74-1,.11.11,0,0,1,0-.14.07.07,0,0,1,.11,0l.21.19a2,2,0,0,0,.64.33,2.15,2.15,0,0,0,2.12-.6,2,2,0,0,0,.37-.59,2.62,2.62,0,0,0,.2-.76,3.75,3.75,0,0,0-.25-1.75,2.7,2.7,0,0,0-1.09-1.38,3.34,3.34,0,0,0-1.86-.5,11.15,11.15,0,0,0-4.08,1.27c-1.31.61-2.51,1.25-3.52,1.84a32.8,32.8,0,0,0-3.29,2.2.07.07,0,0,1-.11,0A.12.12,0,0,1,141.44,21.43Z"/><path class="cls-2" d="M150.53,15.85a37.75,37.75,0,0,0,3.65-1.36c1.08-.46,2.31-1,3.62-1.72a11.77,11.77,0,0,0,3.66-2.58,4.07,4.07,0,0,0,.89-3.88,3.49,3.49,0,0,0-.94-1.45,2.2,2.2,0,0,0-1.3-.58,2.53,2.53,0,0,0-1.27.28,3.42,3.42,0,0,0-.92.68,3.94,3.94,0,0,0-.49.65l-.15.27h0a.07.07,0,0,1-.11,0,.11.11,0,0,1,0-.1l0-.35a3.93,3.93,0,0,1,.3-.94A3.56,3.56,0,0,1,160,2.74a3,3,0,0,1,2.23.54,4.45,4.45,0,0,1,1.67,2.28,5.23,5.23,0,0,1,0,3.24,6.49,6.49,0,0,1-1.54,2.51,12.25,12.25,0,0,1-4.21,2.49,34.15,34.15,0,0,1-3.8,1.33,36.77,36.77,0,0,1-3.78.9.08.08,0,0,1-.1-.08A.1.1,0,0,1,150.53,15.85Z"/><path class="cls-2" d="M159.78,12.27s.23-.19.68-.49a10.91,10.91,0,0,1,1.92-1,8.81,8.81,0,0,1,3-.7,6.08,6.08,0,0,1,1.77.17,5,5,0,0,1,1.77.84,5.34,5.34,0,0,1,1.45,1.61,4.7,4.7,0,0,1,.46,1.07A5.52,5.52,0,0,1,171,15a4.66,4.66,0,0,1-.48,2.24,3.72,3.72,0,0,1-.59.85l-.09.09a.66.66,0,0,1-.1.09l-.15.12a2.44,2.44,0,0,1-.4.26,2.36,2.36,0,0,1-1.42.24,2.09,2.09,0,0,1-1-.43,2.05,2.05,0,0,1-.48-.52l-.12-.23a.11.11,0,0,1,0-.14.07.07,0,0,1,.08,0h0l.18.1a1.8,1.8,0,0,0,.52.15,2,2,0,0,0,1.58-.54,1.11,1.11,0,0,0,.15-.16l.11-.13s.07-.08,0,0l0-.06a2.11,2.11,0,0,0,.24-.52,4,4,0,0,0,.18-1.3,3.63,3.63,0,0,0-.06-.68,4.44,4.44,0,0,0-.22-.73,3.7,3.7,0,0,0-.89-1.28,4.57,4.57,0,0,0-2.8-1.16,9.78,9.78,0,0,0-2.8.23,10,10,0,0,0-2,.67c-.46.21-.72.36-.72.36a.08.08,0,0,1-.11,0A.11.11,0,0,1,159.78,12.27Z"/><path class="cls-2" d="M166.46,10.65A22.93,22.93,0,0,0,169.2,10c.81-.24,1.74-.55,2.73-.93a13.9,13.9,0,0,0,2.9-1.44,3.56,3.56,0,0,0,1-1.13,2.69,2.69,0,0,0,.34-1.25,2,2,0,0,0-.2-1,1.17,1.17,0,0,0-.6-.52.72.72,0,0,0-.65.08,1.32,1.32,0,0,0-.43.58,1.37,1.37,0,0,0-.06.78.11.11,0,0,1,0,.13.07.07,0,0,1-.11,0,1.43,1.43,0,0,1-.38-1A2.18,2.18,0,0,1,174,3a1.72,1.72,0,0,1,1.43-.84,2.14,2.14,0,0,1,1.75.91,3.53,3.53,0,0,1,.65,2.32A4.21,4.21,0,0,1,177,7.64,5.11,5.11,0,0,1,175.45,9a14.12,14.12,0,0,1-3.28,1.17,19.92,19.92,0,0,1-2.88.51,22.62,22.62,0,0,1-2.82.15.09.09,0,0,1-.08-.09A.1.1,0,0,1,166.46,10.65Z"/><path class="cls-2" d="M172.11,9.51a7.25,7.25,0,0,1,.79-.3,8.16,8.16,0,0,1,2.19-.4,9,9,0,0,1,6.46,2.42,6.14,6.14,0,0,1,1.39,1.8,4.51,4.51,0,0,1,.44,2.57,3.14,3.14,0,0,1-1.23,2.19,2.06,2.06,0,0,1-2,.23,2.26,2.26,0,0,1-1.22-1.24,2.76,2.76,0,0,1-.21-1.33,2.34,2.34,0,0,1,.19-.79,1.77,1.77,0,0,1,.13-.24h0a.07.07,0,0,1,.12,0,.11.11,0,0,1,0,.09,2.3,2.3,0,0,0,.1.89,2.1,2.1,0,0,0,.42.75,1.08,1.08,0,0,0,1.54.09,1.64,1.64,0,0,0,.43-1,2.79,2.79,0,0,0-.12-1.41,4.4,4.4,0,0,0-.88-1.45,8.9,8.9,0,0,0-2.77-2.08,9.14,9.14,0,0,0-2.85-.83,7.7,7.7,0,0,0-2.12,0,6.93,6.93,0,0,0-.81.17.08.08,0,0,1-.1-.07.1.1,0,0,1,0-.11Z"/><path class="cls-2" d="M77.29,84.93a.35.35,0,0,1-.32-.36.37.37,0,0,1,.3-.41c4.92-.45,8.51-4.85,12.3-9.51,4.22-5.18,8.59-10.56,15-9.87a.37.37,0,0,1,.3.42c0,.21-.14.37-.35.35C98.4,64.92,94.15,70.14,90,75.19c-3.71,4.56-7.55,9.27-12.72,9.74Z"/><path class="cls-2" d="M94.5,68.24a12.07,12.07,0,0,1-3.67-.64.4.4,0,0,1-.22-.48.32.32,0,0,1,.4-.26s4.26,1.49,6.51-.26a.3.3,0,0,1,.45.11.44.44,0,0,1-.09.54A5.45,5.45,0,0,1,94.5,68.24Z"/><path class="cls-2" d="M92.44,78.48a.36.36,0,0,1-.33-.37c0-.21-.2-5.08,1.12-7.75a.3.3,0,0,1,.45-.14.43.43,0,0,1,.12.53c-1.22,2.46-1,7.27-1,7.32a.37.37,0,0,1-.31.41Z"/><path class="cls-2" d="M85,78A8.08,8.08,0,0,1,83,77.81a.39.39,0,0,1-.25-.46.33.33,0,0,1,.39-.29,7.26,7.26,0,0,0,4.93-.57.3.3,0,0,1,.43.18.42.42,0,0,1-.15.52A6.83,6.83,0,0,1,85,78Z"/><path class="cls-2" d="M82.74,87.62h0a.38.38,0,0,1-.29-.43A17,17,0,0,1,84.85,80a.29.29,0,0,1,.46,0,.44.44,0,0,1,0,.55,16.41,16.41,0,0,0-2.29,6.74A.35.35,0,0,1,82.74,87.62Z"/><path class="cls-4" d="M77.64,84.51c-2.5-5.38-5.7-5.64-6.2-3.37s4.36,3.32,4.36,3.32-5.4.89-4.68,3.3S76,86,76,86s-3.95,4-2,5.56S77.6,86.83,77.64,84.51Z"/><path class="cls-4" d="M82.87,86.34c-3.24,1.06-5.41,3.91-4.25,5.08s3-2,3-2-1.27,4.88.7,4.61.84-4.41.84-4.41,1.16,3.27,2.44,1.52S82.87,86.34,82.87,86.34Z"/><path class="cls-4" d="M83.55,77.53c.13-4.11-1.82-6-2.84-5.21s.34,2.74.34,2.74-2.69-1.2-3,.62,2,1.89,3.37,1.48c0,0-3.1,1-2,2.65S83.55,77.53,83.55,77.53Z"/><path class="cls-4" d="M92.43,77.61c-3.47,1-5.49,4.76-4.1,5.56s2.56-1.51,2.56-1.51S89.73,85.47,92,85.34s1.24-3.7,1.24-3.7,2,3.86,2.81,1.3S92.43,77.61,92.43,77.61Z"/><path class="cls-4" d="M91.31,67.35c-1.27-4.27-3.92-7.17-5.1-4.81s2.06,3.33,2.06,3.33-3.29-.74-3.2,1.34,3.16.53,3.16.53-3.14,1.24-2.13,3S91.31,67.35,91.31,67.35Z"/><path class="cls-3" d="M77.83,84.48c-1.17-2.14-1.83-2.4-2.45-1.64s.81,1.05.81,1.05-1.45.68-.82,1.42a.7.7,0,0,0,1.17,0s-.88.67-.24,1.26S77.87,85.44,77.83,84.48Z"/><path class="cls-3" d="M82.87,86.34c-1.5.13-1.95,1.5-1.65,1.9s.7-.29.7-.29-.25.94.39,1,.7-.76.7-.76.72.36.94-.16S83.6,86.67,82.87,86.34Z"/><path class="cls-3" d="M83.55,77.53c.5-1.13-.38-2.62-.79-2.26a1,1,0,0,0-.25.94s-.66-.17-.78.43a.53.53,0,0,0,.47.66.7.7,0,0,0-.45,1C82.13,79.09,83.4,78.21,83.55,77.53Z"/><path class="cls-3" d="M92.43,77.61c-1.7.54-2.55,1.74-2.12,2.23s.84-.23.84-.23,0,.79.7.72.71-.46.71-.46.79.53,1.13-.57S92.43,77.61,92.43,77.61Z"/><path class="cls-3" d="M91.31,67.35s-.88-3.19-1.89-2.65-.19,1.16-.19,1.16a.75.75,0,0,0-.64.84c.06.75.63.75.63.75s-.88.55-.22,1.19S91,68,91.31,67.35Z"/><path class="cls-5" d="M151.32,59.16h-.06c-8.22-1.2-20.8-7.58-24.71-14a.67.67,0,0,1,.11-.83.45.45,0,0,1,.7.13c3.44,5.64,15.11,12.21,24,13.51a.59.59,0,0,1,.44.67A.54.54,0,0,1,151.32,59.16Z"/><path class="cls-2" d="M137.84,53.77a14,14,0,0,1,2.72,13.53C134.12,63.21,137.41,54.15,137.84,53.77Z"/><path class="cls-6" d="M156.7,60.55c3.81,8,10,10.3,11.61,7.55s-7.38-8.34-8.76-8.89c9.45,3.7,11.08,3.34,11.43.35s-6.8-5.19-11.43-4.23c6.35-3,8.06-7.26,5.48-9.28s-6.61,4.74-7.46,7.25c-.21-5.88-1.57-9.24-3.83-8.71s-.47,7.91.82,10.06c-2.82-5-7.64-7-8.77-4.54s5.07,6.48,7.55,7.07c-3.73.14-10.19,3.66-7.79,6.61s8.8-4.14,8.8-4.14c-1.92,5.39-1.6,13.06,1.64,12.79S156.7,60.55,156.7,60.55Z"/><path class="cls-5" d="M157.05,54.84a1.88,1.88,0,0,0-2.23,1.67,2.25,2.25,0,0,0,1.4,2.65,1.88,1.88,0,0,0,2.23-1.67A2.25,2.25,0,0,0,157.05,54.84Z"/><path class="cls-7" d="M93.84,10.76c.46-2.13,4.34-2,2.65,1.54l.42,1.77c2.07-.71,3.34,4.43.44,4l-1.2.92c1.09,1.18-.82,5.22-2.22,2.57,0,0-.91-1.76-1.4-.22S89.11,22.77,90.13,20c0,0,.56-2.24-.94-1.66s-2.83-4.26,0-3.78L90,12.83c-.79-2.09,1.68-4,2.52-1.76Z"/><path class="cls-6" d="M92.92,13.7C92.72,9.54,88.16.42,93.5,0s0,7,.07,13.68S92.85,15.7,92.92,13.7Z"/><path class="cls-6" d="M94.73,14.48c4.34-4.23,6.72-15.08,10.35-10s-6.92,7.8-9.87,11S94.73,14.48,94.73,14.48Z"/><path class="cls-6" d="M95.09,16.8c3.41,2.56,11.91,3.49,9.37,8.11s-5.25-4.28-9.88-7.19S95.09,16.8,95.09,16.8Z"/><path class="cls-6" d="M93.61,18.31c0,4.26,3.29,13.41-1,13.63s.59-10.58.33-13.61S93.61,18.31,93.61,18.31Z"/><path class="cls-6" d="M91.87,17.69c-2.65,3-7.51,12.75-10.83,7.61s7.78-5.56,10.4-8.33S91.87,17.69,91.87,17.69Z"/><path class="cls-6" d="M91.27,16c-6.15-4.67-12.85-5.29-9.64-10.47s6.79,6.28,9.87,9.36S91.27,16,91.27,16Z"/><ellipse class="cls-3" cx="93.24" cy="16.01" rx="1.97" ry="2.34"/><path class="cls-8" d="M111.17,41.12c-.6,1.69-19.43-18.89-21.42-4.05-.92,6.87,4.38,7.14,4,9.63s-7.86,5.15-4.21,11.75c6.57,12.77,20.49-9.18,23.29-6.76,5.14,4.18-20.68,15.64-12.63,24.75s9.56-1.33,13.45-.15,6,12.74,13.58,3.52-3.75-23.8-2.77-26.55,3.75-1.42,5.55,5.7,15.53,11.84,13.73-.83,6.54-9.49,4.8-19.37-10.76-5.76-16.18-1-10,4.52-7.46.41,15.47-5.57,17.1-14-6.48-8.28-11.11-7.08-6.69-10-12.38-4.86,3.21,22.22.34,23.21-.62-12.43-6.12-21.51-7.29,5.35-9.48,6.25-6.91-2-7.62,5.4S112.86,36.37,111.17,41.12Z"/><path class="cls-9" d="M111.84,44.61l-.2,0-.6-.14a16.11,16.11,0,0,1-2.14-.7,56.75,56.75,0,0,1-5.87-3,22,22,0,0,0-5.85-2.38,10.1,10.1,0,0,0-2-.23c-.5,0-.78,0-.78,0s.28-.07.78-.15a10.29,10.29,0,0,1,2.09-.12,21.79,21.79,0,0,1,6.26,1.43,52.74,52.74,0,0,0,6,1.94,13.64,13.64,0,0,0,1.91.3l.55,0h.21a1.45,1.45,0,0,1,1.23,1.6A1.4,1.4,0,0,1,112,44.63Z"/><path class="cls-9" d="M112.83,47.27l-.21.08c-.11,0-.39.14-.72.24a8,8,0,0,1-2.54.25,13,13,0,0,1-3.33-.68c-.59-.19-1.16-.41-1.75-.64l-1.75-.68a15,15,0,0,0-3.44-.93,7.12,7.12,0,0,0-3,.27,5.53,5.53,0,0,0-2,1.12,5.3,5.3,0,0,0-.63.67A5.66,5.66,0,0,1,94,46.2a6.13,6.13,0,0,1,1.91-1.47,7.79,7.79,0,0,1,3.2-.79,15.47,15.47,0,0,1,3.71.41l1.82.41c.59.13,1.18.26,1.72.35a11.11,11.11,0,0,0,2.95.14,6.12,6.12,0,0,0,1.88-.48c.19-.09.32-.15.47-.24l.2-.11a1.21,1.21,0,0,1,1.71.73,1.67,1.67,0,0,1-.62,2Z"/><path class="cls-9" d="M114.49,49.22l-.21.11-.68.33a13.69,13.69,0,0,1-2.45.8c-2,.5-4.67.55-7.19.89a14.17,14.17,0,0,0-3.61,1,9.21,9.21,0,0,0-2.8,1.88A8.13,8.13,0,0,0,96,56.26a7.68,7.68,0,0,0-.41.94,8,8,0,0,1,.31-1,8.91,8.91,0,0,1,1.34-2.35A10.41,10.41,0,0,1,100,51.43a15.7,15.7,0,0,1,3.7-1.58c1.29-.38,2.59-.66,3.77-1A25,25,0,0,0,110.6,48a12.15,12.15,0,0,0,2-1l.51-.34.2-.14a1.18,1.18,0,0,1,1.76.54,1.7,1.7,0,0,1-.46,2.1Z"/><path class="cls-9" d="M117.3,51.48l-.23,1.37a36.47,36.47,0,0,1-.85,3.63,23.52,23.52,0,0,1-2,4.83,14.48,14.48,0,0,1-3.62,4.38c-1.43,1.16-2.92,2-4.2,3.05a11.63,11.63,0,0,0-1.72,1.61,9.83,9.83,0,0,0-1.24,1.81,7.37,7.37,0,0,0-.9,3.31,5.15,5.15,0,0,0,.07,1l.06.35-.09-.34a5.19,5.19,0,0,1-.15-1,7.86,7.86,0,0,1,.66-3.54,10.89,10.89,0,0,1,1.15-2.05A13,13,0,0,1,106,68c1.24-1.2,2.67-2.26,3.9-3.49a13.35,13.35,0,0,0,2.88-4.23,21.68,21.68,0,0,0,1.38-4.49,33.91,33.91,0,0,0,.5-3.37l.12-1.33v0a1.37,1.37,0,0,1,1.41-1.37,1.49,1.49,0,0,1,1.15,1.68S117.31,51.43,117.3,51.48Z"/><path class="cls-9" d="M119.77,51.7v.25c0,.17,0,.38,0,.76a17,17,0,0,1-.41,2.77,47.67,47.67,0,0,1-2.58,7.3,36.91,36.91,0,0,0-1.31,3.74,18.67,18.67,0,0,0-.65,3.43,11.87,11.87,0,0,0,0,2.5c.07.6.15.95.15.95s-.11-.32-.26-.92a12.09,12.09,0,0,1-.33-2.55,19.85,19.85,0,0,1,.27-3.66,39.81,39.81,0,0,1,.91-4.06A47.47,47.47,0,0,0,117.19,55a13.94,13.94,0,0,0,.08-2.27c0-.23,0-.51,0-.66l0-.25a1.49,1.49,0,0,1,1.15-1.68,1.37,1.37,0,0,1,1.41,1.37A2,2,0,0,1,119.77,51.7Z"/><path class="cls-9" d="M121.67,49.24l.07.18c0,.09.13.35.22.63a10.23,10.23,0,0,1,.42,2.24,16.31,16.31,0,0,1-.08,3c-.06.51-.13,1.06-.21,1.58l-.24,1.57c-.08.52-.14,1-.19,1.54,0,.25,0,.51,0,.74s0,.51,0,.74a14.73,14.73,0,0,0,.27,2.65,14.38,14.38,0,0,0,.49,1.83c.15.43.25.68.25.68s-.13-.22-.35-.62a13.9,13.9,0,0,1-.77-1.74,15.08,15.08,0,0,1-.7-2.7c0-.26-.08-.53-.11-.78s-.05-.54-.07-.82c0-.55,0-1.1,0-1.65V56.7c0-.53,0-1,0-1.51a13.34,13.34,0,0,0-.31-2.47,6.6,6.6,0,0,0-.52-1.47l-.28-.5v0a1.72,1.72,0,0,1,.34-2.13,1.17,1.17,0,0,1,1.79.41A1.76,1.76,0,0,1,121.67,49.24Z"/><path class="cls-9" d="M122.48,47.87s1.07.18,2.72.52a22.11,22.11,0,0,1,5.94,2,13.58,13.58,0,0,1,2.84,2,12.17,12.17,0,0,1,2,2.43c.5.79.85,1.48,1.11,2l.39.76-.48-.68c-.31-.43-.75-1.05-1.32-1.73a10.67,10.67,0,0,0-2.16-1.94,11.73,11.73,0,0,0-2.84-1.4A19.92,19.92,0,0,0,125,51c-1.6,0-2.69,0-2.69,0a1.56,1.56,0,0,1,0-3.07h.22Z"/><path class="cls-9" d="M124,45.21l.71.13c.44.08,1.14.21,1.91.4a38,38,0,0,1,5.62,1.82,39.61,39.61,0,0,1,5.31,2.69c1.4.85,2.29,1.49,2.29,1.49s-1-.47-2.44-1A36.73,36.73,0,0,0,131.9,49a35.23,35.23,0,0,0-5.56-.74c-.77,0-1.36,0-1.83,0h-.71a1.56,1.56,0,0,1,0-3.07Z"/><path class="cls-9" d="M123.59,42.44l18.62.47-18.49,2.58a1.36,1.36,0,0,1-1.43-1.34,1.5,1.5,0,0,1,1.13-1.7Z"/><path class="cls-9" d="M121.24,40.76l0-.25.05-.32.12-.56a9.4,9.4,0,0,1,1.21-2.71A16.19,16.19,0,0,1,125,34.14c.91-.88,1.85-1.73,2.81-2.62l7.62-7.07-6.77,8.21c-.84,1-1.71,2.06-2.46,3a15,15,0,0,0-1.75,2.7,6.66,6.66,0,0,0-.62,2l0,.26,0,.29v.26a1.39,1.39,0,0,1-1.36,1.44A1.46,1.46,0,0,1,121.22,41,2,2,0,0,1,121.24,40.76Z"/><path class="cls-9" d="M119.5,38.94l0-.26c0-.14.07-.47.15-.86a11.34,11.34,0,0,1,1-2.75A14.84,14.84,0,0,1,122.88,32c.44-.49.9-.94,1.39-1.4l1.45-1.33a29.42,29.42,0,0,0,2.7-2.67,12.44,12.44,0,0,0,1.85-2.84,9.28,9.28,0,0,0,.75-2.4,8,8,0,0,0,.1-1,8.08,8.08,0,0,1,0,1,9.93,9.93,0,0,1-.5,2.59A13.94,13.94,0,0,1,129,27.25a32.62,32.62,0,0,1-2.46,3.17l-1.27,1.52c-.4.49-.8,1-1.13,1.5a13.31,13.31,0,0,0-1.53,2.86,8.54,8.54,0,0,0-.52,2.12c0,.23,0,.38,0,.58v.26a1.4,1.4,0,0,1-1.34,1.47,1.45,1.45,0,0,1-1.24-1.59A2,2,0,0,1,119.5,38.94Z"/><path class="cls-9" d="M117.72,38.2l.5-.89c.33-.59.72-1.31,1.19-2.32.24-.49.47-1,.71-1.62s.47-1.21.71-1.86c.46-1.32.88-2.76,1.24-4.23s.6-3,.79-4.41c.07-.72.16-1.41.2-2.07s.09-1.29.1-1.87c0-1.16,0-2.14,0-2.82l0-1.07.16,1.06c.1.67.22,1.65.3,2.82.05.59.08,1.23.1,1.9s0,1.39,0,2.14c0,1.48-.15,3.07-.34,4.65s-.49,3.14-.83,4.6c-.19.72-.35,1.43-.55,2.08s-.38,1.27-.58,1.83c-.37,1.11-.77,2.1-1,2.69l-.41,1a1.2,1.2,0,0,1-1.73.67,1.68,1.68,0,0,1-.56-2.06Z"/><path class="cls-9" d="M116.86,39l-.12-.2c-.08-.14-.18-.29-.34-.62a13.34,13.34,0,0,1-1-2.51,44.71,44.71,0,0,1-1.21-7.55,29.09,29.09,0,0,0-.67-3.81,14,14,0,0,0-1.15-3.09,9.78,9.78,0,0,0-.68-1.09,7.67,7.67,0,0,0-.63-.74,4.89,4.89,0,0,0-.45-.42l-.17-.14.18.11a4.59,4.59,0,0,1,.5.35,7.27,7.27,0,0,1,.74.64,9.44,9.44,0,0,1,.84,1,14,14,0,0,1,1.59,3,29.53,29.53,0,0,1,1.17,3.84c.31,1.32.6,2.63.92,3.81a22,22,0,0,0,1,3,9.75,9.75,0,0,0,1,1.79c.1.16.27.36.35.47l.14.18a1.74,1.74,0,0,1-.08,2.17,1.15,1.15,0,0,1-1.82-.1Z"/><path class="cls-9" d="M115.91,39.09l-.45-.46a9.31,9.31,0,0,1-1.12-1.5,26,26,0,0,1-2.12-4.85,19.46,19.46,0,0,0-2.08-4.46,7.14,7.14,0,0,0-1-1.19,5.79,5.79,0,0,0-.44-.38,5.24,5.24,0,0,1,.5.27,6.67,6.67,0,0,1,1.23,1,18.65,18.65,0,0,1,2.92,4.06A21.9,21.9,0,0,0,116,35.42a5.91,5.91,0,0,0,1,.86l.44.3h0a1.7,1.7,0,0,1,.48,2.1,1.19,1.19,0,0,1-1.76.58A1.41,1.41,0,0,1,115.91,39.09Z"/><path class="cls-9" d="M112.67,40.47l-.33-.64c-.22-.42-.48-.92-.87-1.57a35,35,0,0,0-3.11-4.47,32.55,32.55,0,0,0-3.74-3.85c-1.1-1-1.88-1.52-1.88-1.52s.85.39,2.09,1.11a30.57,30.57,0,0,1,4.37,3.1,33.84,33.84,0,0,1,3.93,4c.5.58.93,1.15,1.19,1.49l.42.56a1.75,1.75,0,0,1-.1,2.17,1.15,1.15,0,0,1-1.82-.12A1.66,1.66,0,0,1,112.67,40.47Z"/><path class="cls-3" d="M117,51.84c3.3.62,6.39-2,6.92-6s-1.72-7.6-5-8.23-6.39,2-6.92,6S113.71,51.21,117,51.84Z"/><path class="cls-3" d="M117.53,47.89a2.78,2.78,0,0,0,3.07-2.65,3.16,3.16,0,0,0-2.23-3.65,2.78,2.78,0,0,0-3.07,2.65A3.16,3.16,0,0,0,117.53,47.89Z"/><path class="cls-10" d="M117.69,44.69c-.88-1.7-3.72-3.17-4.15-1.66S116.48,45.06,117.69,44.69Z"/><path class="cls-10" d="M117.69,44.69s-5.39,2.48-3.51,4.21S117.69,44.69,117.69,44.69Z"/><path class="cls-10" d="M117.69,44.69s-1.06,5.54,1,5.5S117.69,44.69,117.69,44.69Z"/><path class="cls-10" d="M117.69,44.69s4.72,4.28,5.15,1.38S117.69,44.69,117.69,44.69Z"/><path class="cls-10" d="M117.69,44.69s5.12-1.49,3.84-3.6S117.69,44.69,117.69,44.69Z"/><path class="cls-10" d="M117.69,44.69s1.71-5.2-.41-5.22S117.69,44.69,117.69,44.69Z"/></g><g id="Layer_3" data-name="Layer 3"><path class="cls-11" d="M49.95,46c-1.46,2.25-3.93,5.59-6.57,6.87-1.91.92-4.1.92-5.45-.62a12.67,12.67,0,0,1-2.25-4.41,9.71,9.71,0,0,0-1.63-2.78c-.28-.31-.28-.26-.06-.57a9,9,0,0,1,1.57-1.54c2-1.76,4.32-3.35,6.12-5.24.39-.44,1.35-1.5.17-1.76-1.4-.31-2.81.88-3.71,1.59a30.82,30.82,0,0,0-5.84,6.87l-.84,1.37c-.11,1.19-.22,2.38-.39,3.52-.17.84-.34,2.16-1.35,2.69a1,1,0,0,1-1.35-.13c-.62-.75.39-2.38.73-3.13.22-.53.45-1.06.73-1.59a10.52,10.52,0,0,0-.11-1.28c-.11-1.72-.39-3.39-.62-5.11-1.52,1.72-3.14,3.35-4.83,4.93a50.09,50.09,0,0,1-11,8c-2.92,1.45-6.57,2.6-10,1.5C.82,54.39-.53,52.32.2,50.25a5,5,0,0,1,1.74-2.12,1.17,1.17,0,0,1,1.12-.22.57.57,0,0,1,.11,1C1,50.2.7,52.8,3.12,54a8.71,8.71,0,0,0,4.16.66c2.92-.22,5.62-1.67,7.86-3a52.86,52.86,0,0,0,6.79-5,70.67,70.67,0,0,0,7-7v-.26A51.58,51.58,0,0,1,28.22,27a25.72,25.72,0,0,1,4.1-11.81c1-1.45,2.41-3.3,4.6-3.75a3.42,3.42,0,0,1,3.54,1.23c1.18,1.67,1.12,3.83,1,5.68a25.24,25.24,0,0,1-1.63,6,47.12,47.12,0,0,1-6.46,11.23l-1.68,2.2c.06,2.11,0,4.23-.06,6.39.51-.84,1-1.59,1.57-2.38a19.74,19.74,0,0,1,5.5-5.55,4.92,4.92,0,0,1,3.93-.88c1.35.4,1.18,1.63.84,2.51a11.4,11.4,0,0,1-4.94,5.42,15.24,15.24,0,0,1-2.92,1.45,6.06,6.06,0,0,1,3.26,4c.28,1,0,4.14,2,4.1,2.47,0,4.16-1.81,5.39-3.26.84-1,2.19-2.91,2.92-4C49.33,45.31,50.17,45.58,49.95,46Zm-20.1,3.22v-.4a7.13,7.13,0,0,0-.51,1.28c-.11.35-.06,1-.17,1.37C29.85,51,29.85,49.76,29.85,49.19ZM31.59,36.5c.56-.66,1-1.32,1.52-2,3.14-4.36,5.9-9.08,7.08-14.05.56-2.2,1.07-5-.17-7.14a2.48,2.48,0,0,0-3-1.06,5.71,5.71,0,0,0-2.75,2.56,18,18,0,0,0-2.36,7.22,44.65,44.65,0,0,0-.45,7.75C31.47,32.05,31.59,34.3,31.59,36.5Z"/><path class="cls-11" d="M83.3,46.11a49.12,49.12,0,0,1-4.6,5.82c-1,.92-2.58,2.25-4.38,2s-2.75-2.07-3.2-3.35a16.41,16.41,0,0,1-.79-2.82l-1,1.37C68,50.82,65.11,54.61,62,53.38a7.57,7.57,0,0,1-3.82-3.88c-1.24,1.63-3.09,3.26-5.28,2.86C50.17,51.88,48,49,49,43.95c.79-3.83,5.28-7.8,10.67-7.67A4.67,4.67,0,0,1,63.53,38a7.13,7.13,0,0,1,1,2.51c.34,1.41-1.68,1.28-1.46.35.34-1.32.11-3.08-1.68-3.66-4.44-1.45-8.48,4.23-9.1,7.09a12.83,12.83,0,0,0,.22,6.83c.39.79,1.46.7,2.3.31a8.81,8.81,0,0,0,3-2.86s0,0-.06,0A6,6,0,0,1,59,42.54c.51-.62,1.68-1.41,2.41-.35.39.57.06,1.37-.17,2A9.88,9.88,0,0,1,60.39,46c.17,1.85.11,3.92,1.07,5.68,2,3.48,5.62-1.06,6.91-2.64l1.8-2.56a26,26,0,0,1,1.07-9.29A31.09,31.09,0,0,1,72.29,34c-.06,0-.06,0-.11,0a52.68,52.68,0,0,0-7.52-2.78,19.37,19.37,0,0,0-8.09-.84A4.05,4.05,0,0,0,54,31.57c-.39.57-.17.84.06,1.28s.34,1-.51.88c-1.4-.18-1.35-1.67-.79-2.42,1.12-1.63,3.93-1.89,6.06-1.81A31,31,0,0,1,66.68,31c2,.66,3.93,1.5,5.9,2.29A22.94,22.94,0,0,1,74,30.42a22.59,22.59,0,0,1,1.8-2.82,5,5,0,0,1,1-1.1c.28-.26,1.07-.35.84.22-.9,2.56-1.68,5.15-2.36,7.75a4.69,4.69,0,0,0,3.14.57,2,2,0,0,0,1.4-1,2.22,2.22,0,0,0,.28-.62,3,3,0,0,1-.06-.35c-.84-.31-.34-1.45.67-1.15s.84,1.32.56,1.94a3.65,3.65,0,0,1-2.41,1.89A6.27,6.27,0,0,1,75,35.23c-.39,1.54-.73,3.08-1.07,4.63-.51,2.51-1.07,5-1.35,7.53a10.46,10.46,0,0,0,.22,4c.17.62.67,1.63,1.46,1.81,1.24.44,2.47-.53,3.2-1.19s4.89-6.08,5.05-6.34S83.58,45.75,83.3,46.11ZM60.22,44.57c.39-.93.62-1.76.22-2.25C60.05,42.49,60.11,43.6,60.22,44.57Z"/><path class="cls-11" d="M98.79,45.84c-.51.75-2.13,3-2.64,3.52a12.36,12.36,0,0,1-4.44,3.88c-2.64,1.19-4.21-.75-4.83-2.64a8.43,8.43,0,0,1,1.12-7c.34-.53,2-2.91.56-3s-3.14,2.29-3.76,3.22c-.56.75-1.18,1.76-1.68,2.51-.34.48-1.18.13-.79-.44.67-1,3.71-6,6.23-6,1.52,0,1.91,1.06,2.08,2a10.68,10.68,0,0,1-.45,4.41c-.45,1.63-1.35,3.3-1.18,5a1.62,1.62,0,0,0,.84,1.37c1.68.66,3.26-1.15,4.1-2,1.07-1.19,3.82-4.89,4-5.2C98.4,44.87,99.07,45.4,98.79,45.84ZM91.89,32.05c2.7,0,1.8,3.35-1,3.35S89.13,32.05,91.89,32.05Z"/><path class="cls-11" d="M101.09,52.54a5.76,5.76,0,0,1-3.48-4.23,7.26,7.26,0,0,1,1.74-6.08c1.18-1.37,3.31-3.08,5.62-2.56,3.09.66,2,4.32,1.07,5.9a7.26,7.26,0,0,1-3.09,3A4,4,0,0,1,101,49a.62.62,0,0,1-.28,0,2.77,2.77,0,0,0,.73,2.42c2.86,2.42,7.19-1.45,8.59-3.3a14,14,0,0,0,1.07-1.37l.62-.92c.34-.49,1.12-.13.9.26A23.5,23.5,0,0,1,110,49.72c-1.52,1.72-4.38,3.48-6.68,3.3A5.74,5.74,0,0,1,101.09,52.54Zm-.34-4.27c2.25,0,3.71-2.38,4.38-3.75.51-1,1.8-3.61-.17-4.18s-3.14,1.28-3.48,2.38a22.79,22.79,0,0,0-.67,5.11C100.81,48,100.76,48.13,100.76,48.27Z"/><path class="cls-11" d="M140.17,46.24a27.89,27.89,0,0,1-3.31,4.05,8.11,8.11,0,0,1-6.4,2.69,7.55,7.55,0,0,1-6.29-5.24,9.27,9.27,0,0,1,6.23-11.37c1.85-.57,4.16-.4,4.72,1.41a5.3,5.3,0,0,1-1.24,4.54c-.28.35-.79,1-1.29,1-.9.09-1.29-.79-.56-1.14,1.8-.71,3.93-5.15.9-5.33-4.72-.31-5.9,6.21-5.78,8.63s.62,7.84,5.56,6.39c3.14-.93,5.17-3.92,6.68-6C139.83,45.23,140.56,45.62,140.17,46.24Z"/><path class="cls-11" d="M155.89,46.28A18.12,18.12,0,0,1,153.53,49a7.83,7.83,0,0,1-5.28,2.33c-4.32-.09-4.1-4.54-3.09-6.83.79-1.81,1.68-3,1.68-3.22.06-.7-1.52-1.15-2.81-1.59-.67,1.32-1.46,2.64-2.25,3.92l-1.68,2.73c-.22.35-1.07-.09-.84-.35,1.24-1.85,2.42-3.74,3.48-5.64.17-.35.39-.66.56-1a2,2,0,0,1-.62-.35c-2.19-2-.84-5.59,2-6.78,1-.44,2-.53,2.08.62.06,1.63-1.18,3.61-1.85,5.11l-.5,1.1a26.58,26.58,0,0,0,2.92,1,2.2,2.2,0,0,1,1.35,2.6c-.22,1.81-1.18,3.39-1.8,5.15-.34.92-.51,2.2.79,2.73,2,.75,4.1-1,5.22-2.07a16.24,16.24,0,0,0,2.3-2.69C155.39,45.49,156.17,45.84,155.89,46.28Zm-12.13-7.8a19.3,19.3,0,0,0,.9-1.81c.45-.88,1.74-3,1.24-4.05-1.18.18-1.46,1.72-1.68,2.42-.28,1-1,2.38-.5,3.3C143.71,38.4,143.76,38.44,143.76,38.49Z"/><path class="cls-11" d="M170.27,51.66c-.06.31-.73.62-1,.75a2.79,2.79,0,0,1-2.36.35c-1.52-.53-2.13-2.29-2.47-3.44,0-.09-.06-.22-.06-.31l-.17.22a8.89,8.89,0,0,1-3.76,3.08c-3.37,1-5.84-1.72-5.78-4.93.06-3,.79-6.26,3.2-8.59a8.51,8.51,0,0,1,5.28-2.47c2-.13,3.09.75,3,2.29a6.08,6.08,0,0,1-2,4.18c-.34.35-1,1-1.57,1.06-.9,0-1.18-.88-.45-1.19a5.2,5.2,0,0,0,2.7-2.33c.45-.84,1.18-3.08-.62-3.3a4.45,4.45,0,0,0-2.92.84,7.11,7.11,0,0,0-2.41,3.79A38,38,0,0,0,157.8,46c-.22,1.28-.67,6.08,2,5.81,1.46-.13,2.58-1.63,3.26-2.47a14.69,14.69,0,0,0,1.07-1.41,9.52,9.52,0,0,1,.17-3.08,7.88,7.88,0,0,1,2.25-4.27c.67-.57,1.91-.79,2,.31,0,1.32-1,2.86-1.57,4.1L166.39,46c-.06.75-.11,1.5-.11,2.25-.06,1-.39,3.17.9,3.83a2,2,0,0,0,2-.44C169.48,51.44,170.43,51,170.27,51.66Zm-3.76-7.93v.4a13.58,13.58,0,0,0,.67-1.54c.17-.35.67-1.32.51-1.81C166.67,41,166.56,43.16,166.5,43.73Z"/><path class="cls-11" d="M190.25,46.11a41.94,41.94,0,0,1-3.48,4.8c-1.4,1.63-3.82,3.35-6.46,2.6a29.82,29.82,0,0,1,.56,3.52c.11,2,.56,7.18-2,8.5s-3.71-1.23-4.21-2.64c-1.8-5.64-1.57-12-1.18-17.71a59.51,59.51,0,0,1,3.59-17.58,32.9,32.9,0,0,1,3.88-7.8c.9-1.23,2.41-3.22,4.55-3,3.37.44,1.91,5.2,1.46,6.87a45.77,45.77,0,0,1-3.31,8.63,81,81,0,0,1-4.66,8.5c-.73,1.15-1.46,2.29-2.3,3.39-.17,1.1-.34,2.2-.45,3.3a.72.72,0,0,1,.34-.35c1.63-1.1,2.81,2.33,3.54,5.46.06,0,.11,0,.17,0,2.36.88,4.49-.79,5.73-2.2.9-1,2.7-3.7,3.48-4.85C189.75,45.36,190.53,45.67,190.25,46.11Zm-10.16,12a29.7,29.7,0,0,0-.79-5,7,7,0,0,1-2.36-2.2,5.09,5.09,0,0,1-.84-2.16c-.28,2.11-.5,4.23-.62,6.34a36.74,36.74,0,0,0-.06,5c.11,1.19.06,4.45,1.8,5C180.43,66.19,180.15,59.15,180.09,58.13Zm-2.75-8.24A5.91,5.91,0,0,0,179,52c-.34-1.28-.67-3-1.85-4C176.61,48.4,177.11,49.41,177.34,49.9ZM177,42.45A77.06,77.06,0,0,0,184.69,28a37.15,37.15,0,0,0,1.68-4.89c.39-1.41,1.12-3.79.06-5.07-2.08-2.47-4.77,3.08-5.11,4a49.17,49.17,0,0,0-2.64,10.48Q177.76,37.49,177,42.45Z"/><path class="cls-11" d="M202.44,46.11c-.62.93-1.91,2.51-2.64,3.39a13.63,13.63,0,0,1-3.93,3.61c-6,3-7.08-5-6.51-9.34a40,40,0,0,1,2.41-10.18c-.34-.22-.67-.44-1-.62a4.55,4.55,0,0,0-2-.75,1.9,1.9,0,0,0-1.85,1.1,1,1,0,0,0,.28,1.23c-.06,0,.39,0,.45,0,1.07.7-.9,1.72-1.63.26-.56-1.14.28-2.73,1.63-3.3,1.57-.62,3.26,0,4.66.88a30.8,30.8,0,0,1,2.13-4.18,9.12,9.12,0,0,1,1.18-1.76c.22-.26,1.29-.93,1.07,0a43,43,0,0,0-2.47,7.22A5.43,5.43,0,0,0,197,34.79c.79,0,3-1.15,2.36-2-1.46-.4-.62-1.76.39-1.19,1.07.4.73,1.45.34,2.12a4.06,4.06,0,0,1-4.38,1.85A7,7,0,0,1,194,35c-.73,3.17-1.18,6.43-1.63,9.65a27.33,27.33,0,0,0-.45,4.76c.06,1.1.17,2.91,1.63,3.48,1.8.66,4-1.94,4.83-2.91,1-1.1,3.14-4,3.37-4.32S202.72,45.71,202.44,46.11Zm-3.09-13.3-.11-.13S199.24,32.8,199.35,32.8Z"/><path class="cls-11" d="M232.93,30.91a24.44,24.44,0,0,1-3.48,12c-2.08,3.44-5.28,7.27-10.16,8.37a13.93,13.93,0,0,1-7.24-.48l-.9-.31a8,8,0,0,1-2,1.15,5.1,5.1,0,0,1-3.42.26c-2.08-.71-2.19-3.66.5-3.7a10.19,10.19,0,0,1,3.76,1.1,3.39,3.39,0,0,0,.67-2.86c-.51-1.94-2.81-3.48-4.38-5l-.67-.62c-.51.93-1.07,1.85-1.63,2.78s-1.18,2-1.74,2.73c-.28.35-1-.09-.84-.35,1.29-1.89,2.47-3.83,3.59-5.77a4.65,4.65,0,0,1-1.12-1.72c-.56-1.81.45-4,1.8-5.37.73-.71,3.31-2.11,3.2-.26s-1.18,3.88-2,5.59c.39.31.9.71,1.24.93.9.66,1.8,1.37,2.58,2.07,1.57,1.37,2.92,3,2.92,4.93a5.16,5.16,0,0,1-1.8,3.57,15.94,15.94,0,0,0,4.83.88c3.93,0,7.13-2.2,9.32-4.58A24.27,24.27,0,0,0,231.58,35c.62-3.13,1.12-7.27-1.18-10-2-2.47-7.3-3.26-9.32-.31a4.52,4.52,0,0,0,.34,5.42,4,4,0,0,0,2.36,1.41c.62.13,1.85-.09,1.8.71s-1.18.62-1.8.48a5.32,5.32,0,0,1-4.49-6.34,5.05,5.05,0,0,1,4-4.05,8.56,8.56,0,0,1,4.72.22C232.08,23.86,233,27.78,232.93,30.91ZM209.51,49.85A21.31,21.31,0,0,0,207.1,49c-2.36-.66-2.75,2.07-.73,2.33A3.9,3.9,0,0,0,209.51,49.85Zm-3.26-12.07c.17-.44.39-.84.56-1.23.28-.71.62-1.37.84-2,.11-.31.67-1.5.39-1.89-1.12,0-1.74,1.67-1.91,2.33A3.78,3.78,0,0,0,206.25,37.78Z"/></g></svg>