<svg id="Layer_1" data-name="Layer 1" xmlns="http://www.w3.org/2000/svg" viewBox="0 0 356.59 53.32"><defs><style>.cls-1{fill:#d1a857;}.cls-2{fill:#5b7862;}.cls-3{fill:#d45b73;}.cls-4{fill:#eecbca;}.cls-5{fill:#d39590;}.cls-6{fill:#3d303a;}.cls-7{fill:#f1ebc7;}.cls-8{opacity:0.15;}.cls-9{fill:#e2a553;}.cls-10{fill:#ece8de;}.cls-11{fill:#c7d2d5;}.cls-12{fill:#93b8b0;}</style></defs><title>line-flowers-001</title><path class="cls-1" d="M86.85,32.28a.7.7,0,0,1-1.27.54c-2-3.4-5.84-6-11.3-7.73A42.36,42.36,0,0,0,52.9,24a87.21,87.21,0,0,0-10.57,3.19c-2.22.77-4.52,1.57-6.83,2.25a68.08,68.08,0,0,1-22,2.63.7.7,0,0,1,.06-1.39,66.67,66.67,0,0,0,21.52-2.58c2.27-.66,4.55-1.45,6.76-2.22a88.43,88.43,0,0,1,10.74-3.24A43.77,43.77,0,0,1,74.7,23.76c5.79,1.84,9.85,4.64,12.07,8.34A.73.73,0,0,1,86.85,32.28Z"/><path class="cls-2" d="M14.61,21.61a2,2,0,0,1,.51-.37,2.91,2.91,0,0,1,3.3,1,13.14,13.14,0,0,1,1.74,3.24A16,16,0,0,0,24.48,31a16.19,16.19,0,0,1-8.53-3.85,5.92,5.92,0,0,1-2-2.84A2.86,2.86,0,0,1,14.61,21.61Z"/><path class="cls-2" d="M25.39,18.83a3.43,3.43,0,0,0,.54,3.89,8.24,8.24,0,0,0,3.54,2.17c4.36,1.62,8.46,1.71,12.84,1.58a17.5,17.5,0,0,1-8-4.64c-1.28-1.31-2.39-2.85-4-3.74S26.35,17.28,25.39,18.83Z"/><path class="cls-2" d="M43.42,16A3.33,3.33,0,0,0,44,18.76a7.45,7.45,0,0,0,3.86,2.18,41.72,41.72,0,0,0,9.5,1.69,22.79,22.79,0,0,1-7.47-5.42,11.84,11.84,0,0,0-2.46-2.35,3,3,0,0,0-3.22-.12A2.17,2.17,0,0,0,43.42,16Z"/><path class="cls-2" d="M70.4,18.54c-.53-1.29-.85-2.66-1.42-3.93a5.72,5.72,0,0,0-2.73-3,3,3,0,0,0-3.7,1c-.86,1.46.07,3.31,1.14,4.64a23.12,23.12,0,0,0,13.18,8.09A12.2,12.2,0,0,1,70.4,18.54Z"/><path class="cls-2" d="M80.39,18.83a2.51,2.51,0,0,1,3.32-.47,2.86,2.86,0,0,1,.81,2.53,17.52,17.52,0,0,1-.72,2.67,10.92,10.92,0,0,0,0,5.77,12.61,12.61,0,0,1-3.86-5.68A5.45,5.45,0,0,1,80,19.37,2.66,2.66,0,0,1,80.39,18.83Z"/><path class="cls-2" d="M15.86,37.47a2.32,2.32,0,0,0-.28,1.59A1.64,1.64,0,0,0,17,40.14a2.91,2.91,0,0,0,1.8-.5c2.8-1.75,3.12-5.73,5.21-8.28a4.09,4.09,0,0,1,.46-.39c-1.21.37-2.31.7-2.62.86A12.56,12.56,0,0,0,15.86,37.47Z"/><path class="cls-2" d="M34.54,42a3,3,0,0,0,1.92-1.35,7.37,7.37,0,0,0,.9-2.71,63.68,63.68,0,0,1,1.27-6.47A12.85,12.85,0,0,1,40.84,27a12.51,12.51,0,0,0-3.08,1.93,21.11,21.11,0,0,0-5,6.74,7.17,7.17,0,0,0-1,3.68A2.8,2.8,0,0,0,34.08,42,2.07,2.07,0,0,0,34.54,42Z"/><path class="cls-2" d="M47.19,32.57a2.73,2.73,0,0,0,.76,2.89,2.34,2.34,0,0,0,3-1,9.2,9.2,0,0,0,1-3.36,17.32,17.32,0,0,1,4.34-8.41,13.53,13.53,0,0,0-3.17,1.46,13.7,13.7,0,0,0-5.86,7.92C47.26,32.26,47.22,32.41,47.19,32.57Z"/><path class="cls-2" d="M59.57,31.44a2.26,2.26,0,0,0,.19,2c.77,1.08,2.55.8,3.5-.13a12.52,12.52,0,0,0,1.95-3.45,10.66,10.66,0,0,1,8.61-5.61,18.58,18.58,0,0,0-5.27.26,12.47,12.47,0,0,0-8.57,6A5.15,5.15,0,0,0,59.57,31.44Z"/><path class="cls-2" d="M73.53,33.09a2.11,2.11,0,0,0-.09,1.15A2.54,2.54,0,0,0,76,36a4.82,4.82,0,0,0,3-1.44c.83-.77,1.51-1.7,2.31-2.51a11.64,11.64,0,0,1,3-2.21,58.5,58.5,0,0,0-6.79.77,7.24,7.24,0,0,0-2.91,1A3.08,3.08,0,0,0,73.53,33.09Z"/><path class="cls-2" d="M17.38,32C10.79,32.4-1.32,31.49.12,25S12,31.48,17.38,32Z"/><path class="cls-1" d="M269.75,32.28a.7.7,0,0,0,1.27.54c2-3.4,5.84-6,11.3-7.73A42.36,42.36,0,0,1,303.69,24a87.21,87.21,0,0,1,10.57,3.19c2.22.77,4.52,1.57,6.83,2.25a68.08,68.08,0,0,0,22,2.63.7.7,0,0,0-.06-1.39,66.67,66.67,0,0,1-21.52-2.58c-2.27-.66-4.55-1.45-6.76-2.22A88.43,88.43,0,0,0,304,22.63a43.77,43.77,0,0,0-22.08,1.12c-5.79,1.84-9.85,4.64-12.07,8.34A.73.73,0,0,0,269.75,32.28Z"/><path class="cls-2" d="M342,21.61a2,2,0,0,0-.51-.37,2.91,2.91,0,0,0-3.3,1,13.14,13.14,0,0,0-1.74,3.24A16,16,0,0,1,332.12,31a16.19,16.19,0,0,0,8.53-3.85,5.92,5.92,0,0,0,2-2.84A2.86,2.86,0,0,0,342,21.61Z"/><path class="cls-2" d="M331.21,18.83a3.43,3.43,0,0,1-.54,3.89,8.24,8.24,0,0,1-3.54,2.17c-4.36,1.62-8.46,1.71-12.84,1.58a17.5,17.5,0,0,0,8-4.64c1.28-1.31,2.39-2.85,4-3.74S330.24,17.28,331.21,18.83Z"/><path class="cls-2" d="M313.17,16a3.33,3.33,0,0,1-.62,2.73,7.45,7.45,0,0,1-3.86,2.18,41.72,41.72,0,0,1-9.5,1.69,22.79,22.79,0,0,0,7.47-5.42,11.84,11.84,0,0,1,2.46-2.35,3,3,0,0,1,3.22-.12A2.17,2.17,0,0,1,313.17,16Z"/><path class="cls-2" d="M286.2,18.54c.53-1.29.85-2.66,1.42-3.93a5.72,5.72,0,0,1,2.73-3,3,3,0,0,1,3.7,1c.86,1.46-.07,3.31-1.14,4.64a23.12,23.12,0,0,1-13.18,8.09A12.2,12.2,0,0,0,286.2,18.54Z"/><path class="cls-2" d="M276.2,18.83a2.51,2.51,0,0,0-3.32-.47,2.86,2.86,0,0,0-.81,2.53,17.52,17.52,0,0,0,.72,2.67,10.92,10.92,0,0,1,0,5.77,12.61,12.61,0,0,0,3.86-5.68,5.45,5.45,0,0,0-.07-4.28A2.66,2.66,0,0,0,276.2,18.83Z"/><path class="cls-2" d="M340.73,37.47a2.32,2.32,0,0,1,.28,1.59,1.64,1.64,0,0,1-1.42,1.09,2.91,2.91,0,0,1-1.8-.5c-2.8-1.75-3.12-5.73-5.21-8.28a4.09,4.09,0,0,0-.46-.39c1.21.37,2.31.7,2.62.86A12.56,12.56,0,0,1,340.73,37.47Z"/><path class="cls-2" d="M322.06,42a3,3,0,0,1-1.92-1.35,7.37,7.37,0,0,1-.9-2.71A63.68,63.68,0,0,0,318,31.45,12.85,12.85,0,0,0,315.75,27a12.51,12.51,0,0,1,3.08,1.93,21.11,21.11,0,0,1,5,6.74,7.17,7.17,0,0,1,1,3.68A2.8,2.8,0,0,1,322.51,42,2.07,2.07,0,0,1,322.06,42Z"/><path class="cls-2" d="M309.4,32.57a2.73,2.73,0,0,1-.76,2.89,2.34,2.34,0,0,1-3-1,9.2,9.2,0,0,1-1-3.36,17.32,17.32,0,0,0-4.34-8.41,13.53,13.53,0,0,1,3.17,1.46,13.7,13.7,0,0,1,5.86,7.92C309.34,32.26,309.37,32.41,309.4,32.57Z"/><path class="cls-2" d="M297,31.44a2.26,2.26,0,0,1-.19,2c-.77,1.08-2.55.8-3.5-.13a12.52,12.52,0,0,1-1.95-3.45,10.66,10.66,0,0,0-8.61-5.61,18.58,18.58,0,0,1,5.27.26,12.47,12.47,0,0,1,8.57,6A5.15,5.15,0,0,1,297,31.44Z"/><path class="cls-2" d="M283.07,33.09a2.11,2.11,0,0,1,.09,1.15A2.54,2.54,0,0,1,280.56,36a4.82,4.82,0,0,1-3-1.44c-.83-.77-1.51-1.7-2.31-2.51a11.64,11.64,0,0,0-3-2.21,58.5,58.5,0,0,1,6.79.77,7.24,7.24,0,0,1,2.91,1A3.08,3.08,0,0,1,283.07,33.09Z"/><path class="cls-2" d="M339.21,32c6.59.37,18.7-.54,17.26-7.05S344.62,31.48,339.21,32Z"/><path class="cls-3" d="M177.15,16c-4.87-11-.89-13.85,1.54-13.66s.55,3.26,2.68,3.25,2.57-6.27,5-5.49,0,5.1,1.75,6,3.3-4,5.44-2.19-3.39,10.47-3.39,10.47S203,7.3,204,11.92s-3.89,3.86-3.59,5.36,4.37.35,4.33,2-2.33,1.28-2.57,2.78,4,.19,2.77,3.08-12.27-.17-12.27-.17,13.15,4.32,10.77,7.43-4.42-.58-5,.78,3.55,1.74,2,3.69-3.26-.67-4,.2,1.94,2,.24,3.26-8.18-7.65-8.18-7.65,5,8.24,1.51,9.94-2.15-2.23-3.32-1.94,1.91,4.62-.51,5-1.36-4.08-2.79-4.08-.09,4.31-2.56,4.1-1.92-9.17-1.92-9.17-1.35,8.86-4.4,8.18-1.69-3.3-2.47-3.84-1.65,3.64-3.16,2.87,1.84-4,.68-4.66-2.14,2-3.4.83S171.4,31,171.4,31s-8.48,8.12-9.65,5.5.63-2.92.29-4.13-2.67.11-3-1.74,3-2.92,2.48-4.09-3.35-1.2-3.21-3.4,11.07-3.09,11.07-3.09-10.69-2.45-9.86-6.19,3.79-.29,4.32-1.65-3.35-2.67-1.75-4.86,4,1.12,5.15.24-.44-2.82,2.14-4.18S177.15,16,177.15,16Z"/><path class="cls-4" d="M175.48,18.3c-5-9.48,2.31-8.61,4.2-3-.46-9,4.8-7.66,4-1.76,4.87-5.61,10.88-2.55,4,2.19,7.84-4,10.2.55,2.55,3.35,6.92-.38,5.86,3.92.62,4.39,5.23,1.72,5,3.7.16,4,4.78,3.59.14,6.62-2.93,3,4.49,5.13,1.63,9.74-3,3.82.29,6.52-4.91,6.68-5.6-.81-2.15,6.15-5.75,4.35-4.49-1.3-5.15,5.15-6.59,2.54-3.3-2.52-6.75,1.11-7.58-2.93-.65-5-6.74.11-6.16-7.45.46-4.58C166.42,15.71,168.85,11.73,175.48,18.3Z"/><path class="cls-5" d="M177.61,18.24c-2.31-8.79,3.57-6.66,4.06-1.7,1.36-7.53,5.44-5.4,3.64-.68,5.1-3.69,9.48,0,2.87,2.57,7.24-1.75,8.31,2.43,1.46,3.25,5.78,1,4.08,4.37-.34,3.74,4,2.43,3.45,4-.63,3.3,3.26,3.89-1.16,5.49-3,1.94,2.72,5.1-.53,8.36-3.21,2.58-1,5.44-5.34,4.57-4.47-1.75-3,4.67-5.59,2.48-3.45-1.94-5.25,3.26-5.93.83-2.24-2.72-5.78-.39-5.69-3.89.44-4.28-5.59-1.21-3.65-7.34,1.26-3.69C170.63,14.36,173.4,11.54,177.61,18.24Z"/><path class="cls-6" d="M184,23.54a2.71,2.71,0,0,1-.92,2.32,3,3,0,0,1-1.43.35,4.69,4.69,0,0,1-3-.48,2.68,2.68,0,0,1-1.06-2.52,3.4,3.4,0,0,1,1.53-2.33,4.17,4.17,0,0,1,3.24-.68C183.7,20.71,184.07,22.3,184,23.54Z"/><circle class="cls-7" cx="179.69" cy="18.27" r="0.98"/><circle class="cls-7" cx="184.05" cy="18.26" r="1.11"/><circle class="cls-7" cx="186.68" cy="20.81" r="0.82"/><circle class="cls-7" cx="186.18" cy="26.24" r="0.91"/><circle class="cls-7" cx="182.39" cy="29.64" r="1"/><circle class="cls-7" cx="177.9" cy="28.63" r="0.8"/><circle class="cls-7" cx="175.42" cy="25.12" r="0.91"/><circle class="cls-7" cx="176.33" cy="20.82" r="0.82"/><g class="cls-8"><path d="M165,34.34c-8-10.24-13.29-8.49-13.23-5.7s3.11,2.85,2.14,4.73-4.6,1.75-3.43,4.73,10.58,1.22,10.58,1.22-7.79,2.86-7.4,5.72,5.06.91,5.77,1.75-1.1,3.83,1.75,4.21,5.25-7.46,5.25-7.46.78,10.63,5.12,9.14.45-4,1.55-5.06,2.42,2.42,3.93.3-1.55-7-5.31-8.53c5.58,1.81,12.13,2.91,12.19.12s-2.4-2.27-2.4-3.31,2.72-2.46,1.17-4.41S170,34.19,170,34.19c3.94-4.72.82-12.5-1.19-12.43s-1,2.14-2.79,2.27-2.74-2.58-4.58-1S165,34.34,165,34.34Z"/><path d="M165,34.34c-3.24-2.27-5.53-3-6.26-1.88s2.43,2.43,2.43,2.43-2.53-.06-2.43,1.62,4.13,2.41,4.13,2.41-5.35.78-3.79,2.92,4.47.29,4.47.29-1.53,2.94.29,3.21,3.26-3.26,3.26-3.26-.14,4.62,2.48,4.13-.13-4.44-.13-4.44,2.12,2.06,3.24,1-2.14-3.69-2.14-3.69,3.7,1.85,4.42-.05-3.11-1.85-3.11-1.85,3.31-.68,3-2.09-4.9-.94-4.9-.94,2.12-6.4-.7-7.18-1.55,4.28-1.55,4.28-.49-3.31-2.53-2.72S165,34.34,165,34.34Z"/><path d="M166.4,37.32s-2.08-2.54-2.8-1.5S166.4,37.32,166.4,37.32Z"/><path d="M166.52,38.68s-3.24,1.17-2,1.78S166.52,38.68,166.52,38.68Z"/><path d="M167.82,38.68c.1,1,.62,2.88,1.56,2S167.82,38.68,167.82,38.68Z"/><path d="M168.41,36.6s2.07,1.55,2.27.26S168.41,36.6,168.41,36.6Z"/><path d="M167.89,35.83s1.09-2.67-.2-3.05S167.89,35.83,167.89,35.83Z"/></g><path class="cls-9" d="M164.84,34.83c-8-10.24-13.29-8.49-13.23-5.7s3.11,2.85,2.14,4.73-4.6,1.75-3.43,4.73,10.58,1.22,10.58,1.22-7.79,2.86-7.4,5.72,5.06.91,5.77,1.75-1.1,3.83,1.75,4.21S166.27,44,166.27,44s.78,10.63,5.12,9.14.45-4,1.55-5.06,2.42,2.42,3.93.3-1.55-7-5.31-8.53c5.58,1.81,12.13,2.91,12.19.12s-2.4-2.27-2.4-3.31,2.72-2.46,1.17-4.41-12.76,2.39-12.76,2.39c3.94-4.72.82-12.5-1.19-12.43s-1,2.14-2.79,2.27-2.74-2.58-4.58-1S164.84,34.83,164.84,34.83Z"/><path class="cls-10" d="M164.84,34.83c-3.24-2.27-5.53-3-6.26-1.88S161,35.38,161,35.38s-2.53-.06-2.43,1.62,4.13,2.41,4.13,2.41-5.35.78-3.79,2.92,4.47.29,4.47.29-1.53,2.94.29,3.21S167,42.58,167,42.58s-.14,4.62,2.48,4.13-.13-4.44-.13-4.44,2.12,2.06,3.24,1-2.14-3.69-2.14-3.69,3.7,1.85,4.42-.05-3.11-1.85-3.11-1.85,3.31-.68,3-2.09-4.9-.94-4.9-.94,2.12-6.4-.7-7.18-1.55,4.28-1.55,4.28S167,28.48,165,29.06,164.84,34.83,164.84,34.83Z"/><path class="cls-6" d="M166.21,37.82s-2.08-2.54-2.8-1.5S166.21,37.82,166.21,37.82Z"/><path class="cls-6" d="M166.33,39.17s-3.24,1.17-2,1.78S166.33,39.17,166.33,39.17Z"/><path class="cls-6" d="M167.62,39.18c.1,1,.62,2.88,1.56,2S167.62,39.18,167.62,39.18Z"/><path class="cls-6" d="M168.21,37.1s2.07,1.55,2.27.26S168.21,37.1,168.21,37.1Z"/><path class="cls-6" d="M167.7,36.33s1.09-2.67-.2-3.05S167.7,36.33,167.7,36.33Z"/><g class="cls-8"><path d="M194.27,32.43s1.66-5.69,4.51-4.2.88,2.45,1.65,3,1.79-1.76,3.11.33-1,4.73-1,4.73,3.58-.67,3.43,2-1.68,3.07-1.68,3.91,1.9,1.77.73,3.52-4.82-.15-4.82-.15,2.32,3.66-.09,4.5-2.41-.8-3.58-.8-.22,2-3.22,1.57-2.09-3.63-2.09-3.63-3.69,3-5.52.27.18-2.27-.26-3.4-2.67-.39-1.94-2.64S188,38.74,188,38.74s-3.84-2.27-2.45-4.69,1.87-.37,2.85-.88,0-3.11,1.94-3.69S194.27,32.43,194.27,32.43Z"/><path d="M196,33.59l0-.15c0-.09,0-.26.09-.42a6.11,6.11,0,0,1,.43-1.19,5.94,5.94,0,0,1,.65-1,5.34,5.34,0,0,1,.36-.42,5.31,5.31,0,0,0-.22.5A5.6,5.6,0,0,0,197,32a5.4,5.4,0,0,0-.05,1.13c0,.16,0,.26,0,.36l0,.15a.52.52,0,1,1-1,.13A.54.54,0,0,1,196,33.59Z"/><path d="M197.05,34.91l.08-.15c0-.09.13-.25.23-.41a7.13,7.13,0,0,1,.84-1.12,6.94,6.94,0,0,1,1-.91c.3-.22.51-.34.51-.34s-.17.17-.4.45a6.61,6.61,0,0,0-.71,1.09,6.41,6.41,0,0,0-.47,1.18c0,.17-.07.28-.1.39l0,.16a.52.52,0,0,1-1-.22A.54.54,0,0,1,197.05,34.91Z"/><path d="M199.56,34.59l.14-.06c.1,0,.18-.08.32-.16a4.11,4.11,0,0,0,.89-.68,4.31,4.31,0,0,0,.7-.93,4,4,0,0,0,.24-.49,4.07,4.07,0,0,1-.08.55,4.65,4.65,0,0,1-.43,1.18,4.82,4.82,0,0,1-.76,1.06c-.12.13-.26.25-.32.31l-.11.1a.52.52,0,0,1-.69-.79Z"/><path d="M201.3,38.17h.13l.37,0a10.27,10.27,0,0,1,2.61.72,10.32,10.32,0,0,0-1.56,0,9.81,9.81,0,0,0-1,.14l-.33.07-.13,0a.52.52,0,0,1-.23-1Z"/><path d="M200.34,40l.13.07.31.16a4.54,4.54,0,0,0,1,.34,4.74,4.74,0,0,0,1.12.09,4.48,4.48,0,0,0,.52-.05,4.52,4.52,0,0,1-.49.21,5.07,5.07,0,0,1-1.17.27,5.25,5.25,0,0,1-1.25,0l-.42-.07-.14,0a.52.52,0,0,1,.22-1Z"/><path d="M200.38,42.53l.15,0,.42.1a9.47,9.47,0,0,1,1.23.41,9.27,9.27,0,0,1,1.14.56c.3.17.48.3.48.3s-.22-.07-.54-.15a8.94,8.94,0,0,0-1.21-.21,8.76,8.76,0,0,0-1.2,0l-.39,0h-.16a.52.52,0,0,1-.08-1Z"/><path d="M199.21,45.63v.43c0,.26,0,.6,0,.94a11.37,11.37,0,0,1-.18,1.33,11.24,11.24,0,0,0-.33-1.27c-.1-.31-.22-.61-.31-.83l-.16-.37h0a.53.53,0,1,1,1-.43A.54.54,0,0,1,199.21,45.63Z"/><path d="M196.71,44.79l0,.15c0,.09-.06.2-.09.36a7.64,7.64,0,0,0-.17,1.14c0,.21,0,.43,0,.63s0,.39,0,.55a.74.74,0,0,0,.12.35.34.34,0,0,0,.11.1.34.34,0,0,1-.14-.07.83.83,0,0,1-.24-.34c-.07-.16-.13-.34-.2-.54s-.12-.42-.18-.64a8.36,8.36,0,0,1-.19-1.24c0-.17,0-.32,0-.42v-.15a.52.52,0,0,1,1,0A.54.54,0,0,1,196.71,44.79Z"/><path d="M194.69,45.16l-.07.19c0,.13-.1.27-.17.48a9.48,9.48,0,0,0-.35,1.52,9.67,9.67,0,0,0-.09,1.59c0,.44,0,.73,0,.73s-.1-.28-.21-.71a10,10,0,0,1-.27-1.62,10.2,10.2,0,0,1,0-1.67c0-.22,0-.44.06-.56l0-.2a.52.52,0,1,1,1,.15A.55.55,0,0,1,194.69,45.16Z"/><path d="M191.26,44.95l-.5.19-1.12.38c-.82.26-1.64.47-1.64.47s.73-.45,1.41-.93c.34-.24.68-.49.93-.68l.41-.32h0a.52.52,0,1,1,.64.83Z"/><path d="M191.63,43.05h-.18l-.44,0a7.11,7.11,0,0,0-1.35.27,7.31,7.31,0,0,0-1.3.54c-.34.18-.56.33-.56.33s.17-.2.47-.46a7.64,7.64,0,0,1,1.18-.88,7.83,7.83,0,0,1,1.36-.65l.48-.16.17-.05a.52.52,0,1,1,.29,1Z"/><path d="M190.13,40.92l-.19,0c-.13,0-.26,0-.46,0a5.37,5.37,0,0,0-1.42.16,5.56,5.56,0,0,0-1.37.56,4.77,4.77,0,0,0-.42.27l-.16.11.13-.14a4.85,4.85,0,0,1,.36-.36,5.9,5.9,0,0,1,1.28-.91,6.07,6.07,0,0,1,1.52-.55c.21,0,.43-.08.54-.09l.19,0a.52.52,0,0,1,.13,1Z"/><path d="M190.29,37.74h-.16l-.21,0-.28,0a4,4,0,0,1-1.33-.5,3.87,3.87,0,0,1-1-.89,3.07,3.07,0,0,1-.25-.36l-.08-.14.12.11a3,3,0,0,0,.33.27,3.53,3.53,0,0,0,1.12.54,3.33,3.33,0,0,0,1.18.1l.2,0,.16,0,.16,0a.52.52,0,1,1,.22,1Z"/><path d="M191.63,37.44l-.07-.13-.18-.33a11.26,11.26,0,0,0-.62-1,11.84,11.84,0,0,0-1.09-1.3,11.73,11.73,0,0,1,2.39,1.71l.29.28.11.1a.52.52,0,1,1-.73.75A.54.54,0,0,1,191.63,37.44Z"/><path d="M193,34.73l-.05-.12c0-.08-.07-.16-.13-.28a6.06,6.06,0,0,0-.5-.83,6.26,6.26,0,0,0-.64-.76c-.19-.2-.34-.32-.34-.32s.17.06.43.18a6.58,6.58,0,0,1,.91.52,6.78,6.78,0,0,1,.83.67l.26.26.09.09a.53.53,0,0,1-.76.73A.54.54,0,0,1,193,34.73Z"/><path d="M191.83,35.84s-1.07-2.68,2.44-3.41,3.83,2.39,3.83,2.39,3.22-2.51,4.34,1-1.59,4.68-1.59,4.68,2.59,3-.62,5-4.27-.19-4.27-.19-2.24,4.19-5,1.56-.33-4-.33-4-3.45-.55-2.54-4.35S191.83,35.84,191.83,35.84Z"/><path d="M195.06,37l-.29,0a6.34,6.34,0,0,0-.22-3l.28-.09A6.64,6.64,0,0,1,195.06,37Z"/><path d="M198.49,38.33l-.19-.22a5.19,5.19,0,0,1,2.88-1.23l0,.29A4.9,4.9,0,0,0,198.49,38.33Z"/><path d="M199.06,44.32A10.82,10.82,0,0,0,197.87,42l.24-.16a11.1,11.1,0,0,1,1.22,2.4Z"/><path d="M192.29,44.95l-.26-.13a5.2,5.2,0,0,1,1.89-2.13l.16.25A5,5,0,0,0,192.29,44.95Z"/><path d="M192.45,39.61a4.28,4.28,0,0,1-2.81-1.06l.19-.22a4,4,0,0,0,2.79,1v.29Z"/><path d="M195.12,36.27s.91-2.41,3-1.46.78,3.1.78,3.1,2.69,1.07,1.81,3.22-2.55,1.2-2.55,1.2.09,3.17-2.58,3a1.65,1.65,0,0,1-1.6-2.49s-2.88,1.66-3.66-.55S192,39.4,192,39.4s-1.68-2-.12-3.56S195.12,36.27,195.12,36.27Z"/><path d="M194.33,38.59c-1.74-1.8,2.29-4,2.19-.48,1.78-2.71,4.41,1.89.93,1.83,3,1.34-.55,4.54-1.73,1.49-.32,2.56-4.48,1.52-1.62-1.07C191.15,41.42,191.25,37,194.33,38.59Z"/><circle cx="195.76" cy="39.74" r="0.7"/><path d="M195.76,39.6c-.66-.57-1.06-2.12-.38-2.24S196,39,195.76,39.6Z"/><path d="M195.76,39.6s1.51-2.6,2.1-1.51S195.76,39.6,195.76,39.6Z"/><path d="M195.76,39.6s2.48-.17,2.29.9S195.76,39.6,195.76,39.6Z"/><path d="M195.76,39.6s1.46,2.71.18,2.74S195.76,39.6,195.76,39.6Z"/><path d="M195.76,39.6s-1.06,2.53-1.86,1.72S195.76,39.6,195.76,39.6Z"/><path d="M195.76,39.6s-2.38.52-2.22-.57S195.76,39.6,195.76,39.6Z"/><circle cx="194.69" cy="33.91" r="0.55"/><circle cx="201.19" cy="37.03" r="0.49"/><circle cx="199.2" cy="44.27" r="0.48"/><circle cx="192.16" cy="44.89" r="0.47"/><circle cx="189.74" cy="38.44" r="0.41"/></g><path class="cls-11" d="M194.78,32.48s1.66-5.69,4.51-4.2.88,2.45,1.65,3,1.79-1.76,3.11.33-1,4.73-1,4.73,3.58-.67,3.43,2-1.68,3.07-1.68,3.91,1.9,1.77.73,3.52-4.82-.15-4.82-.15,2.32,3.66-.09,4.5-2.41-.8-3.58-.8-.22,2-3.22,1.57-2.09-3.63-2.09-3.63-3.69,3-5.52.27.18-2.27-.26-3.4-2.67-.39-1.94-2.64,4.49-2.69,4.49-2.69-3.84-2.27-2.45-4.69,1.87-.37,2.85-.88,0-3.11,1.94-3.69S194.78,32.48,194.78,32.48Z"/><path class="cls-12" d="M196.49,33.64l0-.15c0-.09,0-.26.09-.42a6.11,6.11,0,0,1,.43-1.19,5.94,5.94,0,0,1,.65-1,5.34,5.34,0,0,1,.36-.42,5.31,5.31,0,0,0-.22.5,5.6,5.6,0,0,0-.3,1.13,5.4,5.4,0,0,0-.05,1.13c0,.16,0,.26,0,.36l0,.15a.52.52,0,1,1-1,.13A.54.54,0,0,1,196.49,33.64Z"/><path class="cls-12" d="M197.56,35l.08-.15c0-.09.13-.25.23-.41a7.13,7.13,0,0,1,.84-1.12,6.94,6.94,0,0,1,1-.91c.3-.22.51-.34.51-.34s-.17.17-.4.45a6.61,6.61,0,0,0-.71,1.09,6.41,6.41,0,0,0-.47,1.18c0,.17-.07.28-.1.39l0,.16a.52.52,0,0,1-1-.22A.54.54,0,0,1,197.56,35Z"/><path class="cls-12" d="M200.06,34.64l.14-.06c.1,0,.18-.08.32-.16a4.11,4.11,0,0,0,.89-.68,4.31,4.31,0,0,0,.7-.93,4,4,0,0,0,.24-.49,4.07,4.07,0,0,1-.08.55,4.65,4.65,0,0,1-.43,1.18,4.82,4.82,0,0,1-.76,1.06c-.12.13-.26.25-.32.31l-.11.1a.52.52,0,0,1-.69-.79Z"/><path class="cls-12" d="M201.81,38.22h.13l.37,0a10.27,10.27,0,0,1,2.61.72,10.32,10.32,0,0,0-1.56,0,9.81,9.81,0,0,0-1,.14l-.33.07-.13,0a.52.52,0,0,1-.23-1Z"/><path class="cls-12" d="M200.85,40l.13.07.31.16a4.54,4.54,0,0,0,1,.34,4.74,4.74,0,0,0,1.12.09,4.48,4.48,0,0,0,.52-.05,4.52,4.52,0,0,1-.49.21,5.07,5.07,0,0,1-1.17.27,5.25,5.25,0,0,1-1.25,0l-.42-.07-.14,0a.52.52,0,0,1,.22-1Z"/><path class="cls-12" d="M200.89,42.58l.15,0,.42.1a9.47,9.47,0,0,1,1.23.41,9.27,9.27,0,0,1,1.14.56c.3.17.48.3.48.3s-.22-.07-.54-.15a8.94,8.94,0,0,0-1.21-.21,8.76,8.76,0,0,0-1.2,0l-.39,0h-.16a.52.52,0,0,1-.08-1Z"/><path class="cls-12" d="M199.71,45.68v.43c0,.26,0,.6,0,.94a11.37,11.37,0,0,1-.18,1.33,11.24,11.24,0,0,0-.33-1.27c-.1-.31-.22-.61-.31-.83l-.16-.37h0a.53.53,0,1,1,1-.43A.54.54,0,0,1,199.71,45.68Z"/><path class="cls-12" d="M197.21,44.84l0,.15c0,.09-.06.2-.09.36a7.64,7.64,0,0,0-.17,1.14c0,.21,0,.43,0,.63s0,.39,0,.55A.74.74,0,0,0,197,48a.34.34,0,0,0,.11.1A.34.34,0,0,1,197,48a.83.83,0,0,1-.24-.34c-.07-.16-.13-.34-.2-.54s-.12-.42-.18-.64a8.36,8.36,0,0,1-.19-1.24c0-.17,0-.32,0-.42v-.15a.52.52,0,1,1,1,0A.54.54,0,0,1,197.21,44.84Z"/><path class="cls-12" d="M195.2,45.21l-.07.19c0,.13-.1.27-.17.48a9.48,9.48,0,0,0-.35,1.52,9.67,9.67,0,0,0-.09,1.59c0,.44,0,.73,0,.73s-.1-.28-.21-.71a10,10,0,0,1-.27-1.62,10.2,10.2,0,0,1,0-1.67c0-.22,0-.44.06-.56l0-.2a.52.52,0,1,1,1,.15A.55.55,0,0,1,195.2,45.21Z"/><path class="cls-12" d="M191.77,45l-.5.19-1.12.38c-.82.26-1.64.47-1.64.47s.73-.45,1.41-.93c.34-.24.68-.49.93-.68l.41-.32h0a.52.52,0,1,1,.64.83Z"/><path class="cls-12" d="M192.14,43.1H192l-.44,0a7.11,7.11,0,0,0-1.35.27,7.31,7.31,0,0,0-1.3.54c-.34.18-.56.33-.56.33s.17-.2.47-.46a7.64,7.64,0,0,1,1.18-.88,7.83,7.83,0,0,1,1.36-.65l.48-.16.17-.05a.52.52,0,1,1,.29,1Z"/><path class="cls-12" d="M190.64,41l-.19,0c-.13,0-.26,0-.46,0a5.37,5.37,0,0,0-1.42.16,5.56,5.56,0,0,0-1.37.56,4.77,4.77,0,0,0-.42.27l-.16.11.13-.14a4.85,4.85,0,0,1,.36-.36,5.9,5.9,0,0,1,1.28-.91A6.07,6.07,0,0,1,189.9,40c.21,0,.43-.08.54-.09l.19,0a.52.52,0,0,1,.13,1Z"/><path class="cls-12" d="M190.8,37.79h-.16l-.21,0-.28,0a4,4,0,0,1-1.33-.5,3.87,3.87,0,0,1-1-.89,3.07,3.07,0,0,1-.25-.36l-.08-.14.12.11a3,3,0,0,0,.33.27,3.53,3.53,0,0,0,1.12.54,3.33,3.33,0,0,0,1.18.1l.2,0,.16,0,.16,0a.52.52,0,1,1,.22,1Z"/><path class="cls-12" d="M192.14,37.49l-.07-.13-.18-.33a11.26,11.26,0,0,0-.62-1,11.84,11.84,0,0,0-1.09-1.3,11.73,11.73,0,0,1,2.39,1.71l.29.28.11.1a.52.52,0,1,1-.73.75A.54.54,0,0,1,192.14,37.49Z"/><path class="cls-12" d="M193.51,34.78l-.05-.12c0-.08-.07-.16-.13-.28a6.06,6.06,0,0,0-.5-.83,6.26,6.26,0,0,0-.64-.76c-.19-.2-.34-.32-.34-.32s.17.06.43.18a6.58,6.58,0,0,1,.91.52,6.78,6.78,0,0,1,.83.67l.26.26.09.09a.53.53,0,0,1-.76.73A.54.54,0,0,1,193.51,34.78Z"/><path class="cls-12" d="M192.34,35.89s-1.07-2.68,2.44-3.41,3.83,2.39,3.83,2.39,3.22-2.51,4.34,1-1.59,4.68-1.59,4.68,2.59,3-.62,5-4.27-.19-4.27-.19-2.24,4.19-5,1.56-.33-4-.33-4-3.45-.55-2.54-4.35S192.34,35.89,192.34,35.89Z"/><path class="cls-6" d="M195.57,37l-.29,0a6.34,6.34,0,0,0-.22-3l.28-.09A6.64,6.64,0,0,1,195.57,37Z"/><path class="cls-6" d="M199,38.38l-.19-.22a5.19,5.19,0,0,1,2.88-1.23l0,.29A4.9,4.9,0,0,0,199,38.38Z"/><path class="cls-6" d="M199.57,44.37A10.82,10.82,0,0,0,198.38,42l.24-.16a11.1,11.1,0,0,1,1.22,2.4Z"/><path class="cls-6" d="M192.8,45l-.26-.13a5.2,5.2,0,0,1,1.89-2.13l.16.25A5,5,0,0,0,192.8,45Z"/><path class="cls-6" d="M193,39.66a4.28,4.28,0,0,1-2.81-1.06l.19-.22a4,4,0,0,0,2.79,1v.29Z"/><path class="cls-10" d="M195.63,36.32s.91-2.41,3-1.46.78,3.1.78,3.1,2.69,1.07,1.81,3.22-2.55,1.2-2.55,1.2.09,3.17-2.58,3a1.65,1.65,0,0,1-1.6-2.49s-2.88,1.66-3.66-.55,1.65-2.93,1.65-2.93-1.68-2-.12-3.56S195.63,36.32,195.63,36.32Z"/><path class="cls-1" d="M194.83,38.64c-1.74-1.8,2.29-4,2.19-.48,1.78-2.71,4.41,1.89.93,1.83,3,1.34-.55,4.54-1.73,1.49C195.9,44,191.75,43,194.6,40.4,191.66,41.47,191.76,37,194.83,38.64Z"/><circle class="cls-6" cx="196.27" cy="39.79" r="0.7"/><path class="cls-6" d="M196.27,39.65c-.66-.57-1.06-2.12-.38-2.24S196.53,39.06,196.27,39.65Z"/><path class="cls-6" d="M196.27,39.65s1.51-2.6,2.1-1.51S196.27,39.65,196.27,39.65Z"/><path class="cls-6" d="M196.27,39.65s2.48-.17,2.29.9S196.27,39.65,196.27,39.65Z"/><path class="cls-6" d="M196.27,39.65s1.46,2.71.18,2.74S196.27,39.65,196.27,39.65Z"/><path class="cls-6" d="M196.27,39.65s-1.06,2.53-1.86,1.72S196.27,39.65,196.27,39.65Z"/><path class="cls-6" d="M196.27,39.65s-2.38.52-2.22-.57S196.27,39.65,196.27,39.65Z"/><circle class="cls-6" cx="195.2" cy="33.96" r="0.55"/><circle class="cls-6" cx="201.7" cy="37.08" r="0.49"/><circle class="cls-6" cx="199.71" cy="44.32" r="0.48"/><circle class="cls-6" cx="192.67" cy="44.94" r="0.47"/><circle class="cls-6" cx="190.24" cy="38.49" r="0.41"/></svg>